<?xml version="1.0" encoding="utf-8"?>
<!-- Generator: Adobe Illustrator 19.0.0, SVG Export Plug-In . SVG Version: 6.00 Build 0)  -->
<svg version="1.1" id="Layer_1" xmlns="http://www.w3.org/2000/svg" xmlns:xlink="http://www.w3.org/1999/xlink" x="0px" y="0px" width="176" height="32"
	 viewBox="-313 52 176 32" style="enable-background:new -313 52 176 32;" xml:space="preserve">
<style type="text/css">
	.st0{fill:#232323;}
	.st1{fill:#343C6A;}
</style>
<path class="st0" d="M-297,53.4c0.5,0,1,0.1,1.5,0.4c0.4,0.3,0.8,0.6,1.1,1.1h1.8c0.8,0,1.5,0.3,2.1,0.9c0.5,0.5,0.9,1.3,0.9,2.1
	v17.5c0,1.9-0.8,3.8-2.1,5.2c-1.4,1.4-3.2,2.1-5.2,2.1h-13.1c-0.8,0-1.5-0.3-2.1-0.9c-0.5-0.5-0.9-1.3-0.9-2.1V57.8
	c0-0.8,0.3-1.5,0.9-2.1c0.5-0.5,1.3-0.9,2.1-0.9h1.8c0.3-0.4,0.6-0.8,1.1-1.1c0.4-0.3,0.9-0.4,1.5-0.4H-297z M-297.2,64.2l-6.2,6.2
	l-2.1-2.1c-0.3-0.3-0.6-0.4-1-0.4c-0.4,0-0.7,0.2-1,0.4c-0.3,0.3-0.4,0.6-0.4,1c0,0.4,0.1,0.8,0.4,1l3,3c0.1,0.1,0.3,0.3,0.5,0.3
	c0.2,0.1,0.4,0.1,0.6,0.1c0.2,0,0.4,0,0.6-0.1c0.2-0.1,0.4-0.2,0.5-0.3l7.1-7.1c0.1-0.1,0.2-0.3,0.3-0.5c0.1-0.2,0.1-0.4,0.1-0.6
	c0-0.2,0-0.4-0.1-0.6c-0.1-0.2-0.2-0.3-0.3-0.5s-0.3-0.2-0.5-0.3c-0.2-0.1-0.4-0.1-0.6-0.1c-0.2,0-0.4,0-0.6,0.1
	C-296.9,63.9-297.1,64-297.2,64.2z M-297.7,56.3h-7.3c-0.2,0-0.3,0.1-0.5,0.2c-0.1,0.1-0.2,0.3-0.3,0.4l0,0.1v1.5
	c0,0.2,0.1,0.3,0.2,0.5c0.1,0.1,0.3,0.2,0.4,0.3l0.1,0h7.3c0.2,0,0.3-0.1,0.5-0.2c0.1-0.1,0.2-0.3,0.3-0.4l0-0.1v-1.5
	c0-0.2-0.1-0.3-0.2-0.5c-0.1-0.1-0.3-0.2-0.4-0.3L-297.7,56.3z"/>
<path class="st1" d="M-269.3,64.4c-0.1-0.7-0.3-1.2-0.8-1.5c-0.5-0.4-1.1-0.6-2-0.6c-0.6,0-1,0.1-1.4,0.2c-0.4,0.1-0.7,0.4-0.9,0.6
	c-0.2,0.3-0.3,0.5-0.3,0.9c0,0.3,0,0.5,0.2,0.7c0.1,0.2,0.3,0.4,0.5,0.6c0.2,0.2,0.5,0.3,0.9,0.4c0.3,0.1,0.7,0.2,1.1,0.3l1.6,0.4
	c0.9,0.2,1.7,0.5,2.4,0.8c0.7,0.3,1.3,0.7,1.7,1.2c0.5,0.4,0.8,1,1.1,1.6c0.2,0.6,0.4,1.2,0.4,2c0,1.1-0.3,2.1-0.9,3
	s-1.4,1.5-2.5,1.9c-1.1,0.4-2.4,0.7-3.9,0.7c-1.5,0-2.8-0.2-4-0.7c-1.1-0.5-2-1.1-2.6-2.1c-0.6-0.9-0.9-2.1-1-3.5h4.2
	c0,0.6,0.2,1.1,0.5,1.5c0.3,0.4,0.7,0.7,1.1,0.9c0.5,0.2,1.1,0.3,1.7,0.3c0.6,0,1.1-0.1,1.5-0.2c0.4-0.2,0.7-0.4,1-0.7
	c0.2-0.3,0.3-0.6,0.3-1c0-0.3-0.1-0.6-0.3-0.9c-0.2-0.2-0.5-0.5-1-0.6c-0.4-0.2-1-0.4-1.6-0.5l-1.9-0.4c-1.6-0.4-2.8-0.9-3.7-1.7
	c-0.9-0.8-1.4-1.9-1.3-3.3c0-1.1,0.3-2.1,0.9-3c0.6-0.8,1.5-1.5,2.5-2c1.1-0.5,2.3-0.7,3.7-0.7c1.4,0,2.6,0.2,3.7,0.7
	c1,0.5,1.8,1.1,2.4,2s0.9,1.9,0.9,3H-269.3z M-256.3,77.3c-1.4,0-2.7-0.3-3.7-0.9c-1-0.6-1.8-1.4-2.4-2.5c-0.6-1.1-0.8-2.3-0.8-3.7
	c0-1.4,0.3-2.6,0.8-3.7c0.6-1.1,1.3-1.9,2.4-2.5c1-0.6,2.3-0.9,3.7-0.9c1.4,0,2.7,0.3,3.7,0.9c1,0.6,1.8,1.4,2.4,2.5
	c0.6,1.1,0.8,2.3,0.8,3.7c0,1.4-0.3,2.6-0.8,3.7c-0.6,1.1-1.3,1.9-2.4,2.5C-253.6,77.1-254.8,77.3-256.3,77.3z M-256.2,74.1
	c0.5,0,1-0.2,1.3-0.5c0.4-0.3,0.6-0.8,0.8-1.3c0.2-0.6,0.3-1.2,0.3-2c0-0.8-0.1-1.4-0.3-2c-0.2-0.6-0.5-1-0.8-1.3
	c-0.4-0.3-0.8-0.5-1.3-0.5c-0.5,0-1,0.2-1.4,0.5c-0.4,0.3-0.6,0.8-0.8,1.3c-0.2,0.6-0.3,1.2-0.3,2c0,0.7,0.1,1.4,0.3,2
	c0.2,0.6,0.5,1,0.8,1.3C-257.2,73.9-256.8,74.1-256.2,74.1z M-243.3,77.3c-0.9,0-1.6-0.1-2.3-0.4c-0.7-0.3-1.2-0.7-1.6-1.3
	c-0.4-0.6-0.6-1.3-0.6-2.2c0-0.8,0.1-1.4,0.4-1.9c0.3-0.5,0.6-0.9,1.1-1.3c0.5-0.3,1-0.6,1.6-0.7c0.6-0.2,1.3-0.3,2-0.3
	c0.8-0.1,1.4-0.1,1.9-0.2c0.5-0.1,0.8-0.2,1-0.3c0.2-0.2,0.3-0.4,0.3-0.6v0c0-0.5-0.2-0.8-0.5-1.1c-0.3-0.2-0.7-0.4-1.3-0.4
	c-0.6,0-1,0.1-1.4,0.4c-0.3,0.2-0.6,0.6-0.7,1l-4-0.1c0.1-0.8,0.4-1.6,0.9-2.2c0.5-0.7,1.2-1.2,2-1.5c0.9-0.4,1.9-0.6,3.1-0.6
	c0.9,0,1.7,0.1,2.4,0.3c0.7,0.2,1.4,0.5,1.9,0.9c0.5,0.4,1,0.9,1.3,1.4c0.3,0.6,0.5,1.2,0.5,1.9v9.3h-4.1v-1.9h-0.1
	c-0.2,0.5-0.6,0.9-0.9,1.2c-0.4,0.3-0.8,0.6-1.3,0.7C-242.1,77.2-242.7,77.3-243.3,77.3z M-242,74.5c0.5,0,0.9-0.1,1.3-0.3
	c0.4-0.2,0.7-0.4,0.9-0.8c0.2-0.3,0.3-0.7,0.3-1.2v-1.3c-0.1,0.1-0.3,0.1-0.5,0.2c-0.2,0.1-0.4,0.1-0.6,0.2c-0.2,0-0.4,0.1-0.6,0.1
	c-0.2,0-0.4,0.1-0.6,0.1c-0.4,0.1-0.8,0.2-1,0.3c-0.3,0.1-0.5,0.3-0.7,0.5c-0.1,0.2-0.2,0.5-0.2,0.8c0,0.4,0.2,0.8,0.5,1
	C-242.9,74.4-242.5,74.5-242,74.5z M-232.5,77.1V63.5h4.2v2.5h0.1c0.2-0.9,0.7-1.6,1.2-2c0.6-0.4,1.2-0.7,2-0.7c0.2,0,0.4,0,0.6,0
	c0.2,0,0.4,0.1,0.6,0.1v3.8c-0.2-0.1-0.5-0.1-0.8-0.2c-0.3,0-0.6-0.1-0.9-0.1c-0.5,0-1,0.1-1.4,0.3c-0.4,0.2-0.7,0.5-1,0.9
	c-0.2,0.4-0.3,0.9-0.3,1.4v7.4H-232.5z M-217.2,62.5v-3.6h15.4v3.6h-5.5v14.6h-4.3V62.5H-217.2z M-197.7,77.3
	c-0.9,0-1.6-0.1-2.3-0.4c-0.7-0.3-1.2-0.7-1.6-1.3c-0.4-0.6-0.6-1.3-0.6-2.2c0-0.8,0.1-1.4,0.4-1.9c0.3-0.5,0.6-0.9,1.1-1.3
	c0.5-0.3,1-0.6,1.6-0.7c0.6-0.2,1.3-0.3,2-0.3c0.8-0.1,1.4-0.1,1.9-0.2c0.5-0.1,0.8-0.2,1-0.3c0.2-0.2,0.3-0.4,0.3-0.6v0
	c0-0.5-0.2-0.8-0.5-1.1c-0.3-0.2-0.7-0.4-1.3-0.4c-0.6,0-1,0.1-1.4,0.4c-0.3,0.2-0.6,0.6-0.7,1l-4-0.1c0.1-0.8,0.4-1.6,0.9-2.2
	c0.5-0.7,1.2-1.2,2-1.5c0.9-0.4,1.9-0.6,3.1-0.6c0.9,0,1.7,0.1,2.4,0.3c0.7,0.2,1.4,0.5,1.9,0.9c0.5,0.4,1,0.9,1.3,1.4
	c0.3,0.6,0.5,1.2,0.5,1.9v9.3h-4.1v-1.9h-0.1c-0.2,0.5-0.6,0.9-0.9,1.2c-0.4,0.3-0.8,0.6-1.3,0.7C-196.5,77.2-197.1,77.3-197.7,77.3
	z M-196.3,74.5c0.5,0,0.9-0.1,1.3-0.3c0.4-0.2,0.7-0.4,0.9-0.8c0.2-0.3,0.3-0.7,0.3-1.2v-1.3c-0.1,0.1-0.3,0.1-0.5,0.2
	c-0.2,0.1-0.4,0.1-0.6,0.2c-0.2,0-0.4,0.1-0.6,0.1s-0.4,0.1-0.6,0.1c-0.4,0.1-0.8,0.2-1,0.3c-0.3,0.1-0.5,0.3-0.7,0.5
	c-0.1,0.2-0.2,0.5-0.2,0.8c0,0.4,0.2,0.8,0.5,1C-197.3,74.4-196.8,74.5-196.3,74.5z M-175,67.6l-4,0.1c0-0.3-0.2-0.5-0.3-0.8
	c-0.2-0.2-0.4-0.4-0.7-0.5c-0.3-0.1-0.6-0.2-1-0.2c-0.5,0-0.9,0.1-1.3,0.3c-0.3,0.2-0.5,0.5-0.5,0.8c0,0.3,0.1,0.5,0.3,0.7
	c0.2,0.2,0.6,0.4,1.2,0.5l2.6,0.5c1.4,0.3,2.4,0.7,3,1.3c0.7,0.6,1,1.4,1,2.4c0,0.9-0.3,1.7-0.8,2.4c-0.5,0.7-1.3,1.2-2.2,1.6
	c-0.9,0.4-2,0.6-3.2,0.6c-1.9,0-3.5-0.4-4.6-1.2c-1.1-0.8-1.8-1.9-1.9-3.2l4.3-0.1c0.1,0.5,0.3,0.9,0.7,1.1c0.4,0.3,0.9,0.4,1.5,0.4
	c0.6,0,1-0.1,1.4-0.3c0.3-0.2,0.5-0.5,0.5-0.8c0-0.3-0.1-0.6-0.4-0.7c-0.3-0.2-0.7-0.3-1.3-0.4l-2.4-0.5c-1.4-0.2-2.4-0.7-3.1-1.4
	c-0.7-0.7-1-1.5-1-2.6c0-0.9,0.2-1.7,0.7-2.3c0.5-0.7,1.2-1.1,2.1-1.5c0.9-0.3,2-0.5,3.2-0.5c1.8,0,3.3,0.4,4.4,1.2
	C-175.7,65.2-175.1,66.3-175,67.6z M-168.6,73.5l0-5.2h0.6l3.8-4.9h4.9l-5.7,7h-1.1L-168.6,73.5z M-172.5,77.1V58.9h4.3v18.2H-172.5
	z M-164,77.1l-3.6-5.7l2.9-3.1l5.7,8.7H-164z"/>
</svg>
